<?xml version="1.0" encoding="UTF-8"?><svg id="a" xmlns="http://www.w3.org/2000/svg" width="16" height="16" viewBox="0 0 16 16"><text transform="translate(-297.1 -48.06)" font-family="Alef-Bold, Alef" font-size="201" font-weight="700"><tspan x="0" y="0">favicon</tspan></text><polygon points="4.6 1.46 4.3 .54 .44 .54 2.15 5.36 4.6 1.46" fill="#ff4500"/><polygon points="15.56 .54 11.72 .54 10.13 5.36 14.47 3.63 15.56 .54" fill="#a4c217"/><polygon points="14.47 3.63 11.72 .54 15.56 .54 14.47 3.63" fill="#d5ca29"/><polygon points="5.89 5.36 4.6 1.46 2.9 4.17 5.89 5.36" fill="#d6493e"/><polygon points="4.23 11.24 8 11.8 5.89 5.36 3.33 8.7 4.23 11.24" fill="#a63b94"/><polygon points="8 11.8 11.77 11.24 12.72 8.55 10.13 5.36 8 11.8" fill="#2db686"/><polygon points="8 11.8 10.27 15.46 5.73 15.46 8 11.8" fill="#0197d8"/><polygon points="8 11.8 5.73 15.46 4.23 11.24 8 11.8" fill="#336c9b"/><polygon points="10.27 15.46 11.77 11.24 8 11.8 10.27 15.46" fill="#26bf79"/><polygon points="3.33 8.7 5.89 5.36 1.53 3.62 3.33 8.7" fill="#cc4e84"/><polygon points="12.72 8.55 10.13 5.36 14.47 3.63 12.72 8.55" fill="#1bc07d"/></svg>