<svg width="620" height="530" viewBox="0 0 620 530" fill="none" xmlns="http://www.w3.org/2000/svg">
<path d="M5.60171 430.679H6.00619C8.3726 430.679 10.482 432.165 11.2758 434.395L31.6209 491.423C31.9762 492.414 33.3749 492.414 33.7303 491.423L54.0262 434.399C54.8201 432.168 56.9294 430.679 59.2958 430.679H59.6966C63.5675 430.679 66.2666 434.516 64.9624 438.16L41.1584 504.658C40.3608 506.88 38.2552 508.366 35.8926 508.366H29.4019C27.0393 508.366 24.9299 506.88 24.1361 504.658L0.33209 438.16C-0.972084 434.516 1.72699 430.679 5.59792 430.679H5.60171Z" fill="#332E3C"/>
<path d="M75.4705 441.389C74.0869 440.005 73.3951 438.331 73.3951 436.361C73.3951 434.392 74.0869 432.721 75.4705 431.334C76.854 429.95 78.5287 429.258 80.4982 429.258C82.4677 429.258 84.1385 429.95 85.5258 431.334C86.9094 432.717 87.6012 434.392 87.6012 436.361C87.6012 438.331 86.9094 440.005 85.5258 441.389C84.1423 442.773 82.4677 443.464 80.4982 443.464C78.5287 443.464 76.854 442.773 75.4705 441.389ZM74.7069 502.772V457.36C74.7069 454.272 77.2132 451.766 80.3016 451.766H80.6947C83.7832 451.766 86.2894 454.272 86.2894 457.36V502.772C86.2894 505.861 83.7832 508.367 80.6947 508.367H80.3016C77.2132 508.367 74.7069 505.861 74.7069 502.772Z" fill="#332E3C"/>
<path d="M97.1732 469.033V467.669C97.1732 463.261 98.7647 459.511 101.955 456.415C105.142 453.319 108.975 451.773 113.455 451.773H141.077C144.165 451.773 146.671 454.279 146.671 457.367V457.708C146.671 460.796 144.165 463.302 141.077 463.302H113.455C112.143 463.302 111.024 463.73 110.094 464.588C109.164 465.442 108.699 466.474 108.699 467.676V469.041C108.699 470.281 109.164 471.335 110.094 472.209C111.024 473.082 112.143 473.52 113.455 473.52H134.106C138.585 473.52 142.411 475.078 145.579 478.193C148.747 481.308 150.331 485.069 150.331 489.473V492.421C150.331 496.829 148.747 500.59 145.579 503.702C142.411 506.816 138.585 508.374 134.106 508.374H105.338C102.25 508.374 99.7438 505.868 99.7438 502.779V502.439C99.7438 499.35 102.25 496.844 105.338 496.844H134.106C135.418 496.844 136.537 496.406 137.467 495.532C138.396 494.659 138.861 493.601 138.861 492.365V489.522C138.861 488.286 138.396 487.22 137.467 486.328C136.537 485.436 135.418 484.989 134.106 484.989H113.455C108.975 484.989 105.142 483.432 101.955 480.317C98.7685 477.202 97.1732 473.441 97.1732 469.037V469.033Z" fill="#332E3C"/>
<path d="M161.216 487.935V457.365C161.216 454.276 163.723 451.77 166.811 451.77H167.151C170.24 451.77 172.746 454.276 172.746 457.365V487.773C172.746 490.321 173.612 492.49 175.339 494.275C177.071 496.059 179.172 496.951 181.648 496.951H200.58C201.196 496.951 201.699 496.448 201.699 495.832V457.365C201.699 454.276 204.205 451.77 207.293 451.77H207.634C210.722 451.77 213.228 454.276 213.228 457.365V496.898C213.228 500.066 212.09 502.773 209.815 505.011C207.539 507.252 204.798 508.371 201.593 508.371H181.652C176.042 508.371 171.234 506.368 167.231 502.361C163.224 498.354 161.22 493.545 161.22 487.939L161.216 487.935Z" fill="#332E3C"/>
<path d="M224.112 487.935V472.092C224.112 466.483 226.108 461.693 230.096 457.724C234.084 453.755 238.9 451.77 244.548 451.77H270.529C273.618 451.77 276.124 454.276 276.124 457.365V502.776C276.124 505.865 273.618 508.371 270.529 508.371H270.189C267.101 508.371 264.594 505.865 264.594 502.776V464.419C264.594 463.802 264.092 463.3 263.475 463.3H244.544C242.068 463.3 239.962 464.165 238.235 465.893C236.507 467.62 235.642 469.726 235.642 472.202V487.826C235.642 490.302 236.515 492.422 238.265 494.192C240.012 495.957 242.106 496.841 244.548 496.841H252.449C255.537 496.841 258.043 499.348 258.043 502.436V502.776C258.043 505.865 255.537 508.371 252.449 508.371H244.548C238.938 508.371 234.13 506.368 230.126 502.361C226.119 498.354 224.116 493.545 224.116 487.939L224.112 487.935Z" fill="#332E3C"/>
<path d="M287.557 502.771V436.274C287.557 433.185 290.063 430.679 293.151 430.679H293.491C296.58 430.679 299.086 433.185 299.086 436.274V502.771C299.086 505.86 296.58 508.366 293.491 508.366H293.151C290.063 508.366 287.557 505.86 287.557 502.771Z" fill="#332E3C"/>
<path d="M339.856 486.623V436.274C339.856 433.185 342.362 430.679 345.451 430.679H345.734C348.822 430.679 351.329 433.185 351.329 436.274V486.623C351.329 489.465 352.331 491.885 354.334 493.888C356.338 495.892 358.742 496.893 361.547 496.893H394.469C397.557 496.893 400.063 499.4 400.063 502.488V502.772C400.063 505.86 397.557 508.366 394.469 508.366H361.547C355.574 508.366 350.467 506.246 346.222 502C341.98 497.759 339.856 492.629 339.856 486.623Z" fill="#332E3C"/>
<path d="M406.578 487.934V472.091C406.578 466.482 408.574 461.692 412.562 457.723C416.55 453.754 421.366 451.769 427.014 451.769H452.995C456.084 451.769 458.59 454.275 458.59 457.364V502.775C458.59 505.864 456.084 508.37 452.995 508.37H452.655C449.567 508.37 447.06 505.864 447.06 502.775V464.418C447.06 463.801 446.558 463.299 445.941 463.299H427.01C424.534 463.299 422.429 464.164 420.701 465.892C418.97 467.623 418.108 469.725 418.108 472.201V487.825C418.108 490.301 418.981 492.421 420.731 494.191C422.478 495.956 424.572 496.841 427.014 496.841H434.915C438.003 496.841 440.509 499.347 440.509 502.435V502.775C440.509 505.864 438.003 508.37 434.915 508.37H427.014C421.404 508.37 416.596 506.367 412.592 502.36C408.585 498.353 406.582 493.544 406.582 487.938L406.578 487.934Z" fill="#332E3C"/>
<path d="M473.756 451.769H474.002C476.334 451.769 478.421 453.217 479.241 455.402L491.542 488.229C491.905 489.193 493.265 489.201 493.636 488.237L506.228 455.364C507.056 453.198 509.135 451.769 511.452 451.769H512.178C516.106 451.769 518.812 455.712 517.398 459.375L491.666 526.092C490.835 528.25 488.759 529.672 486.446 529.672H485.773C481.857 529.672 479.154 525.752 480.541 522.092L486.457 506.51L468.524 459.352C467.133 455.689 469.836 451.769 473.752 451.769H473.756Z" fill="#332E3C"/>
<path d="M527.394 492.414V463.457C527.394 460.218 528.577 457.458 530.943 455.183C533.31 452.907 536.153 451.769 539.468 451.769H563.068C567.585 451.769 571.433 453.372 574.624 456.577C577.811 459.783 579.406 463.662 579.406 468.213V469.797C579.406 474.276 577.811 478.11 574.624 481.296C571.437 484.483 567.585 486.078 563.068 486.078H551.069C547.981 486.078 545.475 483.572 545.475 480.484V480.2C545.475 477.112 547.981 474.605 551.069 474.605H563.177C564.489 474.605 565.608 474.133 566.538 473.184C567.468 472.239 567.933 471.09 567.933 469.744V468.213C567.933 466.867 567.468 465.71 566.538 464.743C565.608 463.779 564.489 463.295 563.177 463.295H544.514C541.426 463.295 538.92 465.801 538.92 468.89V492.361C538.92 493.601 539.339 494.656 540.175 495.529C541.014 496.402 542.031 496.841 543.233 496.841H569.815C572.904 496.841 575.41 499.347 575.41 502.435V502.775C575.41 505.864 572.904 508.37 569.815 508.37H543.233C538.863 508.37 535.128 506.813 532.032 503.698C528.936 500.583 527.39 496.822 527.39 492.418L527.394 492.414Z" fill="#332E3C"/>
<path d="M595.892 508.366C592.803 508.366 590.297 505.86 590.297 502.772V467.612C590.297 463.242 591.888 459.507 595.079 456.411C598.266 453.315 602.099 451.769 606.578 451.769H613.606C616.694 451.769 619.2 454.275 619.2 457.364V457.647C619.2 460.736 616.694 463.242 613.606 463.242H606.578C605.267 463.242 604.148 463.688 603.218 464.58C602.288 465.472 601.823 466.557 601.823 467.831V502.775C601.823 505.864 599.317 508.37 596.228 508.37H595.888L595.892 508.366Z" fill="#332E3C"/>
<path d="M232.504 23.738L224.819 0.327148H125.86L169.59 123.611L232.504 23.738Z" fill="#FF4500"/>
<path d="M513.002 0.327148H414.584L373.878 123.611L485.005 79.258L513.002 0.327148Z" fill="#A4C217"/>
<path d="M485.005 79.258L414.584 0.327148H513.002L485.005 79.258Z" fill="#D5CA29"/>
<path d="M265.461 123.612L232.505 23.7383L188.851 93.0334L265.461 123.612Z" fill="#D6493E"/>
<path d="M222.967 274.099L319.43 288.512L265.46 123.612L199.874 209L222.967 274.099Z" fill="#A63B94"/>
<path d="M319.427 288.512L415.875 274.14L440.307 205.265L373.873 123.612L319.427 288.512Z" fill="#2DB686"/>
<path d="M319.43 288.512L377.611 382.031H261.249L319.43 288.512Z" fill="#0197D8"/>
<path d="M319.43 288.512L261.249 382.031L222.966 274.098L319.43 288.512Z" fill="#336C9B"/>
<path d="M377.608 382.03L415.875 274.139L319.427 288.512L377.608 382.03Z" fill="#26BF79"/>
<path d="M199.873 208.999L265.46 123.612L153.777 79.0354L199.873 208.999Z" fill="#CC4E84"/>
<path d="M440.312 205.264L373.878 123.611L485.005 79.2581L440.312 205.264Z" fill="#1BC07D"/>
</svg>
