<?xml version="1.0" encoding="UTF-8"?><svg id="a" xmlns="http://www.w3.org/2000/svg" width="793.5" height="152.5" viewBox="0 0 793.5 152.5"><path d="m184.37,50.5h.4c2.34,0,4.43,1.47,5.21,3.67l20.12,56.41c.35.98,1.74.98,2.08,0l20.07-56.4c.78-2.21,2.87-3.68,5.21-3.68h.4c3.83,0,6.5,3.79,5.21,7.4l-23.54,65.77c-.79,2.2-2.87,3.67-5.21,3.67h-6.42c-2.34,0-4.42-1.47-5.21-3.67l-23.54-65.77c-1.29-3.6,1.38-7.4,5.21-7.4Z" stroke-width="0"/><path d="m253.47,61.09c-1.37-1.37-2.05-3.03-2.05-4.97s.68-3.6,2.05-4.97c1.37-1.37,3.03-2.05,4.97-2.05s3.6.68,4.97,2.05c1.37,1.37,2.05,3.03,2.05,4.97s-.68,3.6-2.05,4.97c-1.37,1.37-3.03,2.05-4.97,2.05s-3.6-.68-4.97-2.05Zm-.76,60.71v-44.91c0-3.06,2.48-5.53,5.53-5.53h.39c3.06,0,5.53,2.48,5.53,5.53v44.91c0,3.06-2.48,5.53-5.53,5.53h-.39c-3.06,0-5.53-2.48-5.53-5.53Z" stroke-width="0"/><path d="m274.94,88.43v-1.35c0-4.36,1.58-8.07,4.73-11.13,3.15-3.06,6.94-4.59,11.37-4.59h27.32c3.06,0,5.53,2.48,5.53,5.53v.34c0,3.06-2.48,5.53-5.53,5.53h-27.32c-1.3,0-2.4.42-3.32,1.27-.92.85-1.38,1.86-1.38,3.05v1.35c0,1.22.46,2.27,1.38,3.13.92.86,2.03,1.3,3.32,1.3h20.42c4.43,0,8.21,1.54,11.35,4.62,3.13,3.08,4.7,6.8,4.7,11.16v2.92c0,4.36-1.57,8.08-4.7,11.16-3.13,3.08-6.92,4.62-11.35,4.62h-28.45c-3.06,0-5.53-2.48-5.53-5.53v-.34c0-3.06,2.48-5.53,5.53-5.53h28.45c1.3,0,2.4-.43,3.32-1.3s1.38-1.91,1.38-3.13v-2.81c0-1.22-.46-2.28-1.38-3.16-.92-.88-2.03-1.32-3.32-1.32h-20.42c-4.43,0-8.22-1.54-11.37-4.62-3.15-3.08-4.73-6.8-4.73-11.16Z" stroke-width="0"/><path d="m338.28,107.13v-30.24c0-3.06,2.48-5.53,5.53-5.53h.34c3.06,0,5.53,2.48,5.53,5.53v30.08c0,2.52.86,4.67,2.57,6.43,1.71,1.77,3.79,2.65,6.24,2.65h18.72c.61,0,1.11-.5,1.11-1.11v-38.05c0-3.06,2.48-5.53,5.53-5.53h.34c3.06,0,5.53,2.48,5.53,5.53v39.1c0,3.13-1.13,5.81-3.38,8.02-2.25,2.22-4.96,3.32-8.13,3.32h-19.72c-5.55,0-10.3-1.98-14.27-5.94-3.96-3.96-5.94-8.72-5.94-14.27Z" stroke-width="0"/><path d="m400.49,107.13v-15.67c0-5.55,1.97-10.28,5.92-14.21,3.94-3.93,8.71-5.89,14.29-5.89h25.7c3.06,0,5.53,2.48,5.53,5.53v44.91c0,3.06-2.48,5.53-5.53,5.53h-.34c-3.06,0-5.53-2.48-5.53-5.53v-37.94c0-.61-.5-1.11-1.11-1.11h-18.72c-2.45,0-4.53.86-6.24,2.57s-2.57,3.79-2.57,6.24v15.45c0,2.45.86,4.55,2.59,6.29,1.73,1.75,3.8,2.62,6.21,2.62h7.81c3.06,0,5.53,2.48,5.53,5.53v.34c0,3.06-2.48,5.53-5.53,5.53h-7.81c-5.55,0-10.3-1.98-14.27-5.94-3.96-3.96-5.94-8.72-5.94-14.27Z" stroke-width="0"/><path d="m463.24,121.8V56.03c0-3.06,2.48-5.53,5.53-5.53h.34c3.06,0,5.53,2.48,5.53,5.53v65.77c0,3.06-2.48,5.53-5.53,5.53h-.34c-3.06,0-5.53-2.48-5.53-5.53Z" stroke-width="0"/><path d="m514.96,105.83v-49.8c0-3.06,2.48-5.53,5.53-5.53h.28c3.06,0,5.53,2.48,5.53,5.53v49.8c0,2.81.99,5.21,2.97,7.19,1.98,1.98,4.36,2.97,7.13,2.97h32.56c3.06,0,5.53,2.48,5.53,5.53v.28c0,3.06-2.48,5.53-5.53,5.53h-32.56c-5.91,0-10.96-2.1-15.16-6.29-4.2-4.2-6.29-9.27-6.29-15.21Z" stroke-width="0"/><path d="m580.95,107.13v-15.67c0-5.55,1.97-10.28,5.92-14.21,3.94-3.93,8.71-5.89,14.29-5.89h25.7c3.06,0,5.53,2.48,5.53,5.53v44.91c0,3.06-2.48,5.53-5.53,5.53h-.34c-3.06,0-5.53-2.48-5.53-5.53v-37.94c0-.61-.5-1.11-1.11-1.11h-18.72c-2.45,0-4.53.86-6.24,2.57s-2.57,3.79-2.57,6.24v15.45c0,2.45.86,4.55,2.59,6.29,1.73,1.75,3.8,2.62,6.21,2.62h7.81c3.06,0,5.53,2.48,5.53,5.53v.34c0,3.06-2.48,5.53-5.53,5.53h-7.81c-5.55,0-10.3-1.98-14.27-5.94-3.96-3.96-5.94-8.72-5.94-14.27Z" stroke-width="0"/><path d="m647.4,71.35h.24c2.31,0,4.37,1.43,5.18,3.59l12.16,32.47c.36.95,1.71.96,2.07,0l12.45-32.51c.82-2.14,2.87-3.55,5.17-3.55h.72c3.89,0,6.56,3.9,5.16,7.52l-25.45,65.99c-.82,2.13-2.87,3.54-5.16,3.54h-.67c-3.87,0-6.55-3.88-5.17-7.5l5.85-15.41-17.74-46.64c-1.38-3.62,1.3-7.5,5.17-7.5Z" stroke-width="0"/><path d="m700.45,111.56v-28.64c0-3.21,1.17-5.93,3.51-8.19,2.34-2.25,5.15-3.38,8.43-3.38h23.34c4.47,0,8.28,1.59,11.43,4.76,3.15,3.17,4.73,7.01,4.73,11.51v1.57c0,4.43-1.58,8.22-4.73,11.37-3.15,3.15-6.96,4.73-11.43,4.73h-11.87c-3.06,0-5.53-2.48-5.53-5.53v-.28c0-3.06,2.48-5.53,5.53-5.53h11.97c1.3,0,2.4-.47,3.32-1.4.92-.94,1.38-2.07,1.38-3.4v-1.51c0-1.33-.46-2.48-1.38-3.43-.92-.95-2.03-1.43-3.32-1.43h-18.46c-3.06,0-5.53,2.48-5.53,5.53v23.21c0,1.22.41,2.27,1.24,3.13.83.86,1.84,1.3,3.03,1.3h26.29c3.06,0,5.53,2.48,5.53,5.53v.34c0,3.06-2.48,5.53-5.53,5.53h-26.29c-4.32,0-8.02-1.54-11.08-4.62-3.06-3.08-4.59-6.8-4.59-11.16Z" stroke-width="0"/><path d="m768.19,127.33c-3.06,0-5.53-2.48-5.53-5.53v-34.78c0-4.32,1.58-8.01,4.73-11.08,3.15-3.06,6.94-4.59,11.37-4.59h6.95c3.06,0,5.53,2.48,5.53,5.53v.28c0,3.06-2.48,5.53-5.53,5.53h-6.95c-1.3,0-2.4.44-3.32,1.32-.92.88-1.38,1.95-1.38,3.22v34.56c0,3.06-2.48,5.53-5.53,5.53h-.34Z" stroke-width="0"/><polygon points="42.53 11.15 39.56 2.09 1.26 2.09 18.18 49.81 42.53 11.15" fill="#ff4500" stroke-width="0"/><polygon points="151.1 2.09 113.01 2.09 97.25 49.81 140.27 32.64 151.1 2.09" fill="#a4c217" stroke-width="0"/><polygon points="140.27 32.64 113.01 2.09 151.1 2.09 140.27 32.64" fill="#d5ca29" stroke-width="0"/><polygon points="55.29 49.81 42.53 11.15 25.64 37.98 55.29 49.81" fill="#d6493e" stroke-width="0"/><polygon points="38.84 108.06 76.18 113.64 55.29 49.81 29.9 82.86 38.84 108.06" fill="#a63b94" stroke-width="0"/><polygon points="76.18 113.64 113.51 108.08 122.97 81.42 97.25 49.81 76.18 113.64" fill="#2db686" stroke-width="0"/><polygon points="76.18 113.64 98.7 149.84 53.66 149.84 76.18 113.64" fill="#0197d8" stroke-width="0"/><polygon points="76.18 113.64 53.66 149.84 38.84 108.06 76.18 113.64" fill="#336c9b" stroke-width="0"/><polygon points="98.7 149.84 113.51 108.08 76.18 113.64 98.7 149.84" fill="#26bf79" stroke-width="0"/><polygon points="29.9 82.86 55.29 49.81 12.06 32.56 29.9 82.86" fill="#cc4e84" stroke-width="0"/><polygon points="122.97 81.42 97.25 49.81 140.27 32.64 122.97 81.42" fill="#1bc07d" stroke-width="0"/></svg>