<svg width="972" height="187" viewBox="0 0 972 187" fill="none" xmlns="http://www.w3.org/2000/svg">
<path d="M225.663 61.7722H226.153C229.017 61.7722 231.575 63.5703 232.53 66.2612L257.156 135.259C257.584 136.458 259.286 136.458 259.702 135.259L284.267 66.2734C285.222 63.5703 287.78 61.7722 290.644 61.7722H291.133C295.821 61.7722 299.089 66.408 297.51 70.8236L268.698 151.271C267.731 153.962 265.185 155.76 262.321 155.76H254.463C251.599 155.76 249.053 153.962 248.086 151.271L219.274 70.8236C217.695 66.4202 220.963 61.7722 225.651 61.7722H225.663Z" fill="white"/>
<path d="M310.236 74.735C308.559 73.0593 307.727 71.0288 307.727 68.6559C307.727 66.283 308.559 64.2525 310.236 62.5768C311.913 60.9011 313.945 60.0693 316.319 60.0693C318.694 60.0693 320.725 60.9011 322.402 62.5768C324.079 64.2525 324.911 66.283 324.911 68.6559C324.911 71.0288 324.079 73.0593 322.402 74.735C320.725 76.4107 318.694 77.2425 316.319 77.2425C313.945 77.2425 311.913 76.4107 310.236 74.735ZM309.306 148.993V94.0608C309.306 90.318 312.341 87.2968 316.074 87.2968H316.552C320.297 87.2968 323.32 90.3302 323.32 94.0608V148.993C323.32 152.736 320.285 155.757 316.552 155.757H316.074C312.329 155.757 309.306 152.723 309.306 148.993Z" fill="white"/>
<path d="M336.513 108.163V106.512C336.513 101.179 338.447 96.6413 342.303 92.8985C346.158 89.1556 350.797 87.2842 356.219 87.2842H389.658C393.403 87.2842 396.427 90.3176 396.427 94.0482V94.4641C396.427 98.207 393.391 101.228 389.658 101.228H356.219C354.628 101.228 353.282 101.742 352.156 102.782C351.029 103.821 350.466 105.057 350.466 106.512V108.163C350.466 109.656 351.029 110.94 352.156 111.992C353.282 113.044 354.64 113.582 356.219 113.582H381.213C386.635 113.582 391.261 115.466 395.105 119.233C398.936 123 400.857 127.55 400.857 132.883V136.455C400.857 141.788 398.936 146.338 395.105 150.105C391.274 153.873 386.635 155.756 381.213 155.756H346.391C342.645 155.756 339.622 152.723 339.622 148.992V148.577C339.622 144.834 342.658 141.812 346.391 141.812H381.213C382.804 141.812 384.15 141.287 385.276 140.222C386.402 139.158 386.965 137.886 386.965 136.394V132.957C386.965 131.465 386.402 130.168 385.276 129.092C384.15 128.015 382.791 127.477 381.213 127.477H356.219C350.797 127.477 346.158 125.593 342.303 121.826C338.447 118.059 336.513 113.509 336.513 108.176V108.163Z" fill="white"/>
<path d="M414.043 131.036V94.0482C414.043 90.3054 417.079 87.2842 420.812 87.2842H421.228C424.973 87.2842 427.997 90.3176 427.997 94.0482V130.841C427.997 133.923 429.049 136.553 431.142 138.706C433.235 140.871 435.781 141.947 438.78 141.947H461.692C462.439 141.947 463.051 141.335 463.051 140.589V94.0482C463.051 90.3054 466.087 87.2842 469.82 87.2842H470.236C473.981 87.2842 477.004 90.3176 477.004 94.0482V141.874C477.004 145.702 475.621 148.98 472.867 151.683C470.113 154.399 466.796 155.744 462.916 155.744H438.78C431.987 155.744 426.173 153.322 421.314 148.479C416.467 143.635 414.043 137.813 414.043 131.024V131.036Z" fill="white"/>
<path d="M490.191 131.036V111.87C490.191 105.081 492.602 99.2956 497.437 94.4886C502.259 89.6816 508.098 87.2842 514.927 87.2842H546.383C550.129 87.2842 553.152 90.3176 553.152 94.0482V148.98C553.152 152.723 550.117 155.744 546.383 155.744H545.967C542.222 155.744 539.199 152.711 539.199 148.98V102.574C539.199 101.828 538.587 101.216 537.84 101.216H514.927C511.929 101.216 509.383 102.268 507.29 104.359C505.197 106.451 504.144 108.995 504.144 111.992V130.89C504.144 133.886 505.197 136.455 507.314 138.583C509.432 140.724 511.965 141.788 514.915 141.788H524.474C528.22 141.788 531.243 144.821 531.243 148.552V148.968C531.243 152.711 528.207 155.732 524.474 155.732H514.915C508.122 155.732 502.308 153.31 497.449 148.466C492.602 143.623 490.179 137.801 490.179 131.012L490.191 131.036Z" fill="white"/>
<path d="M566.988 148.983V68.5363C566.988 64.7934 570.024 61.7722 573.757 61.7722H574.173C577.918 61.7722 580.942 64.8056 580.942 68.5363V148.983C580.942 152.726 577.906 155.747 574.173 155.747H573.757C570.011 155.747 566.988 152.714 566.988 148.983Z" fill="white"/>
<path d="M630.299 129.449V68.5363C630.299 64.7934 633.335 61.7722 637.068 61.7722H637.411C641.156 61.7722 644.179 64.8056 644.179 68.5363V129.449C644.179 132.887 645.391 135.822 647.814 138.244C650.238 140.666 653.151 141.877 656.541 141.877H696.394C700.139 141.877 703.162 144.91 703.162 148.641V148.983C703.162 152.726 700.127 155.747 696.394 155.747H656.541C649.308 155.747 643.127 153.179 637.986 148.054C632.845 142.916 630.287 136.715 630.287 129.449H630.299Z" fill="white"/>
<path d="M711.064 131.036V111.87C711.064 105.081 713.476 99.2956 718.31 94.4886C723.133 89.6816 728.971 87.2842 735.801 87.2842H767.257C771.002 87.2842 774.026 90.3176 774.026 94.0482V148.98C774.026 152.723 770.99 155.744 767.257 155.744H766.841C763.095 155.744 760.072 152.711 760.072 148.98V102.574C760.072 101.828 759.46 101.216 758.714 101.216H735.801C732.802 101.216 730.256 102.268 728.163 104.359C726.07 106.451 725.018 108.995 725.018 111.992V130.89C725.018 133.886 726.07 136.455 728.188 138.583C730.305 140.724 732.839 141.788 735.789 141.788H745.348C749.093 141.788 752.116 144.821 752.116 148.552V148.968C752.116 152.711 749.081 155.732 745.348 155.732H735.789C728.996 155.732 723.182 153.31 718.323 148.466C713.476 143.623 711.052 137.801 711.052 131.012L711.064 131.036Z" fill="white"/>
<path d="M792.394 87.2842H792.687C795.515 87.2842 798.036 89.0333 799.027 91.6753L813.911 131.391C814.352 132.553 816.004 132.565 816.445 131.391L831.683 91.6264C832.687 89.0088 835.196 87.2842 838.011 87.2842H838.892C843.653 87.2842 846.921 92.0545 845.208 96.4823L814.058 177.198C813.054 179.804 810.545 181.528 807.742 181.528H806.922C802.185 181.528 798.905 176.783 800.594 172.355L807.754 153.506L786.041 96.4579C784.352 92.03 787.632 87.2842 792.369 87.2842H792.394Z" fill="white"/>
<path d="M857.328 136.467V101.436C857.328 97.5098 858.76 94.1828 861.624 91.4185C864.488 88.6664 867.927 87.2842 871.942 87.2842H900.509C905.981 87.2842 910.644 89.229 914.499 93.1064C918.355 96.9838 920.289 101.681 920.289 107.185V109.105C920.289 114.524 918.355 119.16 914.499 123.013C910.644 126.866 905.981 128.798 900.509 128.798H885.981C882.236 128.798 879.212 125.765 879.212 122.034V121.692C879.212 117.949 882.248 114.928 885.981 114.928H900.632C902.223 114.928 903.569 114.353 904.695 113.215C905.822 112.065 906.385 110.683 906.385 109.056V107.209C906.385 105.583 905.822 104.176 904.695 103.014C903.569 101.852 902.211 101.265 900.632 101.265H878.037C874.292 101.265 871.269 104.298 871.269 108.029V136.418C871.269 137.911 871.771 139.195 872.787 140.247C873.802 141.299 875.039 141.837 876.495 141.837H908.673C912.419 141.837 915.442 144.87 915.442 148.601V149.017C915.442 152.76 912.406 155.781 908.673 155.781H876.495C871.208 155.781 866.679 153.897 862.934 150.13C859.188 146.363 857.316 141.812 857.316 136.48L857.328 136.467Z" fill="white"/>
<path d="M940.246 155.756C936.501 155.756 933.478 152.723 933.478 148.992V106.451C933.478 101.167 935.412 96.6536 939.267 92.8985C943.123 89.1556 947.762 87.2842 953.184 87.2842H961.69C965.436 87.2842 968.459 90.3176 968.459 94.0482V94.3907C968.459 98.1336 965.423 101.155 961.69 101.155H953.184C951.593 101.155 950.246 101.693 949.12 102.769C947.994 103.846 947.431 105.154 947.431 106.708V148.98C947.431 152.723 944.396 155.744 940.663 155.744H940.246V155.756Z" fill="white"/>
<path d="M52.057 13.6367L48.4218 2.55493H1.5437L22.2533 60.9239L52.057 13.6367Z" fill="#FF4500"/>
<path d="M184.937 2.55493H138.316L119.026 60.9239L171.681 39.9224L184.937 2.55493Z" fill="#A4C217"/>
<path d="M171.688 39.9224L138.323 2.55493H184.944L171.688 39.9224Z" fill="#D5CA29"/>
<path d="M67.673 60.9283L52.0552 13.6411L31.3823 46.4584L67.673 60.9283Z" fill="#D6493E"/>
<path d="M47.5365 132.183L93.2396 139.009L67.6708 60.9346L36.5942 101.36L47.5365 132.183Z" fill="#A63B94"/>
<path d="M93.24 139.008L138.931 132.207L150.51 99.5978L119.029 60.9338L93.24 139.008Z" fill="#2DB686"/>
<path d="M93.2447 139.005L120.809 183.283H65.6809L93.2447 139.005Z" fill="#0197D8"/>
<path d="M93.2416 139.003L65.6778 183.282L47.5386 132.178L93.2416 139.003Z" fill="#336C9B"/>
<path d="M120.804 183.283L138.931 132.204L93.24 139.004L120.804 183.283Z" fill="#26BF79"/>
<path d="M36.6 101.36L67.6766 60.9347L14.7644 39.8352L36.6 101.36Z" fill="#CC4E84"/>
<path d="M150.507 99.5909L119.026 60.9269L171.681 39.9253L150.507 99.5909Z" fill="#1BC07D"/>
</svg>
